<svg width="23" height="27" viewBox="0 0 23 27" fill="none" xmlns="http://www.w3.org/2000/svg">
<path fill-rule="evenodd" clip-rule="evenodd" d="M1.875 24.125H21.125C21.4897 24.125 21.8394 24.2699 22.0973 24.5277C22.3551 24.7856 22.5 25.1353 22.5 25.5C22.5 25.8647 22.3551 26.2144 22.0973 26.4723C21.8394 26.7301 21.4897 26.875 21.125 26.875H11.5H1.875C1.51033 26.875 1.16059 26.7301 0.902728 26.4723C0.644866 26.2144 0.5 25.8647 0.5 25.5C0.5 25.1353 0.644866 24.7856 0.902728 24.5277C1.16059 24.2699 1.51033 24.125 1.875 24.125ZM12.875 16.1156L17.3341 11.6579L19.2784 13.6021L11.5 21.3805L3.72162 13.6021L5.66587 11.6579L10.125 16.1156V0.75H12.875V16.1156Z" fill="#28AFB0"/>
</svg>
